<mxfile host="app.diagrams.net" modified="2023-09-05T11:35:18.608Z" agent="Mozilla/5.0 (Windows NT 10.0; Win64; x64; rv:109.0) Gecko/20100101 Firefox/117.0" version="21.7.2" etag="-QYH6WW-HGAdoLE7rftm" type="github">
  <diagram name="第 1 页" id="Q8R2ysI5On1YvQ4TbkMa">
    <mxGraphModel>
      <root>
        <mxCell id="0" />
        <mxCell id="1" parent="0" />
      </root>
    </mxGraphModel>
  </diagram>
</mxfile>
